# xmcd CD database file
#
# Track frame offsets:
#	150
#	12070
#	21227
#	29872
#	41972
#	55255
#	70617
#	83042
#	94570
#	111235
#	124372
#	134410
#	143712
#	153502
#	165832
#	177150
#	192210
#	202492
#	214350
#	227985
#
# Disc length: 3192 seconds
#
# Revision: 4
# Processed by: cddbd v1.5.2PL0 Copyright (c) Steve Scherf et al.
# Submitted via: CDex 1.70beta2
#
DISCID=240c7614
DTITLE=Various Artist - The Country Box [Disc Two]
DYEAR=1995
DGENRE=Country
TTITLE0=Roger Miller - Little Green Apples
TTITLE1=The Kendalls - Blue Blue Day
TTITLE2=Jim Reeves - Waiting For A Train
TTITLE3=Billie Jo Spears - You Never Can Tell (C'est La Vie)
TTITLE4=Johnny Russell - Catfish John
TTITLE5=Jo Anne Houston - Always On My Mind
TTITLE6=Johnny Paycheck - Take This Job And Shove It
TTITLE7=Patsy Cline - In Care Of The Blues
TTITLE8=Johnny Cash - The City Of New Orleans
TTITLE9=Lynn Anderson - Rose Garden
TTITLE10=Porter Wagoner - Green Green Grass Of Home
TTITLE11=Jeannie C. Riley - The Girl Most Likely
TTITLE12=Hnak Locklin - Please Help Me, I'm Falling
TTITLE13=The Kendalls - Pick Me Up On Your Way Down
TTITLE14=George Jones - Talk Back Trembling Lips
TTITLE15=Lynn Anderson - Desperado
TTITLE16=Don Gibson - Lonesome Number One
TTITLE17=Anne Murray - The Last Thing On My Mind
TTITLE18=Patsy Cline - Lovesick Blues
TTITLE19=Charlie Rich - My Elusive Dreams
EXTD=YEAR: 1995
EXTT0=
EXTT1=
EXTT2=
EXTT3=
EXTT4=
EXTT5=
EXTT6=
EXTT7=
EXTT8=
EXTT9=
EXTT10=
EXTT11=
EXTT12=
EXTT13=
EXTT14=
EXTT15=
EXTT16=
EXTT17=
EXTT18=
EXTT19=
PLAYORDER=
